<?xml version="1.0" standalone="no"?>
<!DOCTYPE svg PUBLIC "-//W3C//DTD SVG 20010904//EN"
 "http://www.w3.org/TR/2001/REC-SVG-20010904/DTD/svg10.dtd">
<svg version="1.0" xmlns="http://www.w3.org/2000/svg"
 width="400.000000pt" height="84.000000pt" viewBox="159 40 650.000000 84.000000">
<metadata>
Created by potrace 1.16, written by Peter Selinger 2001-2019
</metadata>
<g transform="translate(0.000000,84.000000) scale(0.100000,-0.100000)"
fill="#5E6363" stroke="none">
<path d="M1610 416 c0 -175 0 -176 -51 -176 -12 0 -19 -7 -19 -20 0 -16 7 -20
31 -20 76 0 89 34 89 231 l0 149 -25 0 -25 0 0 -164z"/>
<path d="M1730 430 l0 -150 71 0 c99 0 138 24 139 88 0 19 -8 40 -21 53 -19
19 -19 22 -5 38 9 10 16 34 16 54 0 53 -26 67 -122 67 l-78 0 0 -150z"/>
<path d="M2000 430 l0 -150 85 0 c78 0 85 2 85 20 0 18 -7 20 -65 20 l-65 0 0
130 c0 123 -1 130 -20 130 -19 0 -20 -7 -20 -150z"/>
<path d="M2180 575 c0 -3 20 -46 45 -95 37 -74 45 -99 45 -145 0 -48 2 -55 20
-55 18 0 20 7 20 55 0 47 7 68 50 145 28 50 50 92 50 95 0 3 -10 5 -22 5 -18
0 -30 -14 -57 -66 -39 -75 -39 -75 -87 19 -17 32 -31 47 -44 47 -11 0 -20 -2
-20 -5z"/>
</g>
</svg>
